<?xml version="1.0" encoding="utf-8"?>
<!-- Generator: Adobe Illustrator 16.0.0, SVG Export Plug-In . SVG Version: 6.00 Build 0)  -->
<!DOCTYPE svg PUBLIC "-//W3C//DTD SVG 1.1//EN" "http://www.w3.org/Graphics/SVG/1.1/DTD/svg11.dtd">
<svg version="1.1" id="Layer_1" xmlns="http://www.w3.org/2000/svg" xmlns:xlink="http://www.w3.org/1999/xlink" x="0px" y="0px"
	 width="181.469px" height="40px" viewBox="0 0 181.469 40" enable-background="new 0 0 181.469 40" xml:space="preserve">
<g>
	<defs>
		<rect id="SVGID_1_" width="181.469" height="40"/>
	</defs>
	<clipPath id="SVGID_2_">
		<use xlink:href="#SVGID_1_"  overflow="visible"/>
	</clipPath>
	<path clip-path="url(#SVGID_2_)" fill="#214549" d="M26.905,0c-2.845,0.023-5.134,2.348-5.111,5.194
		c0.003,0.289,0.035,0.572,0.083,0.848L21.87,6.036c0,0,0.005,0.014,0.012,0.034c0.022,0.124,0.049,0.246,0.08,0.366
		c0.099,0.66,0.082,2.038-1.365,3.366c-0.616,0.566-1.18,0.892-1.663,1.078c-1.081-0.928-2.487-1.488-4.024-1.475
		c-3.376,0.027-6.091,2.786-6.064,6.163c0.013,1.607,0.65,3.06,1.673,4.143c-0.189,0.359-0.45,0.749-0.82,1.165
		c-1.305,1.469-2.682,1.508-3.343,1.42c-0.121-0.028-0.243-0.054-0.367-0.074c-0.021-0.007-0.035-0.011-0.035-0.011l0.006,0.006
		c-0.277-0.044-0.559-0.07-0.849-0.068C2.265,22.171-0.023,24.496,0,27.342s2.348,5.135,5.194,5.111
		c2.845-0.022,5.133-2.349,5.11-5.194c-0.001-0.151-0.012-0.302-0.026-0.449l0.023,0.023c0,0-0.056-2.938,1.243-4.226
		c0.572-0.566,1.23-0.949,1.788-1.199c0.534,0.147,1.096,0.229,1.677,0.224c0.898-0.007,1.747-0.212,2.512-0.566l-0.007,0.01
		c0,0,1.475-0.721,4.563,3.058c1.352,1.654,1.384,2.635,1.306,4.14c-0.001,0.017,0.002,0.026,0.003,0.042
		c-0.001,0.051-0.007,0.101-0.007,0.151c0.023,2.846,2.348,5.134,5.194,5.11c2.845-0.021,5.133-2.348,5.111-5.193
		c-0.023-2.846-2.349-5.134-5.194-5.11c0,0-1.501-0.044-2.396-0.307c-1.083-0.316-3.728-2.802-4.315-3.765
		c-0.431-0.708-0.802-0.791-0.909-2.14c0.133-0.509,0.208-1.041,0.204-1.592c-0.004-0.451-0.06-0.888-0.156-1.311
		c0.189-0.621,0.606-1.672,1.439-2.539c1.267-1.32,4.205-1.311,4.205-1.311l-0.025-0.023c0.149,0.012,0.299,0.021,0.451,0.019
		c2.845-0.023,5.134-2.348,5.111-5.193C32.076,2.265,29.75-0.023,26.905,0"/>
	<path clip-path="url(#SVGID_2_)" fill="#2A606F" d="M10.157,7.15c0.014,1.764-1.404,3.205-3.168,3.219
		C5.226,10.383,3.784,8.965,3.77,7.201C3.755,5.438,5.173,3.996,6.938,3.982C8.702,3.968,10.143,5.386,10.157,7.15"/>
	<path clip-path="url(#SVGID_2_)" fill="#2A606F" d="M40.85,14.427c0.014,1.764-1.404,3.205-3.168,3.219s-3.205-1.404-3.219-3.168
		c-0.014-1.763,1.404-3.205,3.168-3.219C39.394,11.245,40.836,12.663,40.85,14.427"/>
	<path clip-path="url(#SVGID_2_)" fill="#509EA4" d="M12.032,34.266c-1.015-0.559-1.978-1.221-2.87-1.984
		c-0.28,0.225-0.577,0.431-0.897,0.608c-0.301,0.168-0.617,0.309-0.941,0.426c1.205,1.112,2.536,2.054,3.956,2.813
		C11.385,35.452,11.646,34.818,12.032,34.266"/>
	<path clip-path="url(#SVGID_2_)" fill="#509EA4" d="M32.904,7.476c0.901,0.962,1.703,2.042,2.384,3.235
		c0.07-0.045,0.136-0.095,0.209-0.136c0.524-0.293,1.108-0.469,1.706-0.53c-0.029-0.054-0.055-0.108-0.084-0.162
		c-1.023-1.833-2.307-3.43-3.775-4.778C33.35,5.931,33.194,6.731,32.904,7.476"/>
	<path clip-path="url(#SVGID_2_)" fill="#509EA4" d="M37.692,18.891c-0.05,0-0.1-0.005-0.15-0.006
		c0.061,3.337-0.851,6.635-2.616,9.466c0,0.007,0.002,0.016,0.002,0.022c0.019,2.339-1.24,4.501-3.285,5.641
		c-0.931,0.52-1.989,0.799-3.06,0.808c-0.293,0.002-0.579-0.022-0.862-0.059c-2.455,1.166-5.068,1.698-7.643,1.652
		c0.01,0.117,0.019,0.236,0.02,0.355c0.005,0.57-0.106,1.122-0.305,1.638c3.353,0.104,6.774-0.666,9.91-2.415
		c6.518-3.636,10.088-10.532,9.823-17.523C38.954,18.736,38.328,18.886,37.692,18.891"/>
	<path clip-path="url(#SVGID_2_)" fill="#509EA4" d="M2.04,21.711c0.392-0.22,0.807-0.393,1.236-0.523
		c-0.391-3.447,0.28-6.924,1.874-9.963c-0.476-0.214-0.917-0.508-1.3-0.885C3.74,10.231,3.637,10.119,3.54,10
		c-2.006,3.67-2.79,7.94-2.154,12.131C1.595,21.979,1.812,21.838,2.04,21.711"/>
	<path clip-path="url(#SVGID_2_)" fill="#509EA4" d="M10.795,4.946c0.384-0.256,0.777-0.503,1.187-0.732
		c2.961-1.651,6.204-2.326,9.36-2.14c0.389-0.707,0.911-1.34,1.544-1.86c-3.963-0.533-8.124,0.162-11.877,2.255
		C10.452,2.78,9.917,3.115,9.404,3.472C9.974,3.848,10.449,4.354,10.795,4.946"/>
	<path clip-path="url(#SVGID_2_)" fill="#2A606F" d="M18.854,36.78c0.014,1.765-1.404,3.205-3.168,3.22
		c-1.764,0.014-3.205-1.404-3.219-3.168c-0.014-1.764,1.404-3.205,3.168-3.22C17.398,33.599,18.84,35.017,18.854,36.78"/>
	<path clip-path="url(#SVGID_2_)" fill="#878787" d="M51.392,28.262l1.239,3.31H52.1l-0.32-0.873h-1.342l-0.32,0.873h-0.531
		l1.238-3.31c0.009-0.027,0.023-0.05,0.043-0.067c0.019-0.019,0.043-0.028,0.07-0.028h0.338c0.026,0,0.051,0.01,0.072,0.028
		C51.369,28.212,51.384,28.234,51.392,28.262 M50.591,30.271h1.036l-0.451-1.257l-0.067-0.217l-0.067,0.217L50.591,30.271z"/>
	<path clip-path="url(#SVGID_2_)" fill="#878787" d="M54.735,28.289c0-0.046,0.008-0.077,0.024-0.096
		c0.017-0.018,0.049-0.026,0.098-0.026h0.995c0.156,0,0.305,0.021,0.446,0.065c0.14,0.043,0.264,0.107,0.369,0.191
		s0.189,0.188,0.25,0.314s0.092,0.273,0.092,0.442c0,0.171-0.031,0.318-0.092,0.443s-0.144,0.229-0.246,0.313
		c-0.101,0.083-0.22,0.146-0.353,0.187c-0.134,0.041-0.274,0.061-0.421,0.061h-0.662v1.387h-0.5V28.289z M56.496,29.181
		c0-0.211-0.06-0.36-0.18-0.451c-0.12-0.089-0.29-0.135-0.51-0.135H55.23v1.162h0.576c0.22,0,0.39-0.043,0.51-0.129
		C56.436,29.543,56.496,29.394,56.496,29.181"/>
	<path clip-path="url(#SVGID_2_)" fill="#878787" d="M58.121,28.662h-0.527v-0.5h0.527V28.662z M57.612,29.163h0.491v2.409h-0.491
		V29.163z"/>
	<path clip-path="url(#SVGID_2_)" fill="#878787" d="M59.833,29.148c0.192,0,0.36,0.037,0.502,0.111
		c0.142,0.073,0.261,0.168,0.354,0.286c0.092,0.115,0.162,0.25,0.209,0.399c0.046,0.15,0.07,0.303,0.07,0.455
		c0,0.156-0.024,0.31-0.07,0.46c-0.047,0.15-0.117,0.284-0.209,0.4c-0.093,0.118-0.212,0.212-0.354,0.284s-0.31,0.108-0.502,0.108
		c-0.195,0-0.364-0.036-0.507-0.108c-0.142-0.072-0.26-0.166-0.353-0.284c-0.093-0.116-0.162-0.25-0.205-0.4
		c-0.044-0.15-0.066-0.304-0.066-0.46c0-0.152,0.022-0.305,0.066-0.455c0.043-0.149,0.112-0.284,0.205-0.399
		c0.093-0.118,0.211-0.213,0.353-0.286C59.469,29.186,59.638,29.148,59.833,29.148 M60.45,30.4c0-0.102-0.012-0.203-0.036-0.304
		c-0.024-0.1-0.062-0.191-0.112-0.272c-0.052-0.077-0.116-0.143-0.192-0.193c-0.076-0.051-0.169-0.077-0.277-0.077
		c-0.111,0-0.206,0.026-0.284,0.077c-0.078,0.051-0.141,0.116-0.189,0.193c-0.051,0.081-0.087,0.173-0.111,0.272
		c-0.022,0.101-0.033,0.202-0.033,0.304c0,0.105,0.011,0.208,0.033,0.309c0.024,0.101,0.06,0.19,0.111,0.269
		c0.048,0.081,0.111,0.146,0.189,0.193c0.078,0.049,0.173,0.071,0.284,0.071c0.108,0,0.201-0.022,0.277-0.071
		c0.076-0.048,0.14-0.112,0.192-0.193c0.05-0.078,0.088-0.168,0.112-0.269S60.45,30.506,60.45,30.4"/>
	<path clip-path="url(#SVGID_2_)" fill="#878787" d="M62.084,29.221v0.207c0.066-0.09,0.151-0.159,0.256-0.207
		c0.106-0.048,0.23-0.072,0.374-0.072c0.268,0,0.47,0.078,0.609,0.236c0.137,0.158,0.206,0.377,0.206,0.655v1.541h-0.5v-1.428
		c0-0.223-0.031-0.377-0.096-0.467c-0.065-0.088-0.178-0.133-0.34-0.133c-0.126,0-0.244,0.057-0.353,0.169
		c-0.111,0.113-0.165,0.291-0.165,0.534v1.324h-0.478v-2.36H62.084z"/>
	<path clip-path="url(#SVGID_2_)" fill="#878787" d="M66.399,30.415c0,0.041-0.008,0.072-0.027,0.094
		c-0.017,0.021-0.045,0.032-0.081,0.032h-1.572c0,0.194,0.048,0.36,0.142,0.498c0.095,0.136,0.255,0.204,0.48,0.204
		c0.129,0,0.238-0.044,0.327-0.131c0.088-0.087,0.155-0.221,0.2-0.4h0.531c-0.083,0.333-0.222,0.573-0.414,0.72
		c-0.192,0.148-0.433,0.221-0.721,0.221c-0.183,0-0.341-0.033-0.475-0.103c-0.133-0.07-0.243-0.162-0.331-0.279
		c-0.09-0.118-0.156-0.251-0.198-0.401s-0.063-0.307-0.063-0.469c0-0.155,0.022-0.309,0.068-0.459
		c0.044-0.149,0.112-0.284,0.202-0.4c0.09-0.117,0.203-0.212,0.34-0.284c0.137-0.072,0.297-0.108,0.48-0.108
		c0.192,0,0.359,0.033,0.5,0.1c0.141,0.065,0.257,0.155,0.347,0.27c0.09,0.115,0.156,0.249,0.2,0.404
		C66.378,30.076,66.399,30.239,66.399,30.415 M64.733,30.14h1.149c-0.013-0.171-0.066-0.311-0.16-0.422
		c-0.095-0.109-0.235-0.164-0.422-0.164c-0.18,0-0.316,0.061-0.409,0.18C64.798,29.854,64.745,29.988,64.733,30.14"/>
	<path clip-path="url(#SVGID_2_)" fill="#878787" d="M69.155,30.415c0,0.041-0.009,0.072-0.027,0.094
		c-0.017,0.021-0.045,0.032-0.081,0.032h-1.572c0,0.194,0.048,0.36,0.142,0.498c0.095,0.136,0.255,0.204,0.48,0.204
		c0.129,0,0.238-0.044,0.327-0.131c0.089-0.087,0.155-0.221,0.2-0.4h0.531c-0.083,0.333-0.222,0.573-0.414,0.72
		c-0.192,0.148-0.433,0.221-0.721,0.221c-0.183,0-0.341-0.033-0.475-0.103c-0.133-0.07-0.243-0.162-0.331-0.279
		c-0.09-0.118-0.156-0.251-0.198-0.401s-0.063-0.307-0.063-0.469c0-0.155,0.022-0.309,0.068-0.459
		c0.044-0.149,0.112-0.284,0.202-0.4c0.09-0.117,0.203-0.212,0.34-0.284c0.137-0.072,0.297-0.108,0.48-0.108
		c0.192,0,0.359,0.033,0.5,0.1c0.141,0.065,0.257,0.155,0.347,0.27c0.09,0.115,0.156,0.249,0.2,0.404
		C69.134,30.076,69.155,30.239,69.155,30.415 M67.489,30.14h1.149c-0.013-0.171-0.066-0.311-0.16-0.422
		c-0.095-0.109-0.235-0.164-0.422-0.164c-0.18,0-0.316,0.061-0.409,0.18C67.554,29.854,67.501,29.988,67.489,30.14"/>
	<path clip-path="url(#SVGID_2_)" fill="#878787" d="M70.854,29.613c-0.069,0-0.136,0.011-0.198,0.032
		c-0.064,0.023-0.119,0.061-0.167,0.111c-0.048,0.048-0.086,0.114-0.115,0.198s-0.043,0.186-0.043,0.307v1.319H69.84v-2.36h0.5
		l-0.009,0.252c0.054-0.071,0.12-0.144,0.199-0.216c0.077-0.072,0.18-0.108,0.306-0.108c0.039,0,0.083,0.004,0.135,0.01
		c0.051,0.006,0.103,0.018,0.157,0.036v0.481c-0.059-0.027-0.111-0.044-0.155-0.052C70.93,29.617,70.89,29.613,70.854,29.613"/>
	<rect x="73.241" y="28.154" clip-path="url(#SVGID_2_)" fill="#878787" width="0.5" height="3.418"/>
	<path clip-path="url(#SVGID_2_)" fill="#878787" d="M75.146,29.221v0.207c0.066-0.09,0.151-0.159,0.257-0.207
		c0.105-0.048,0.229-0.072,0.374-0.072c0.267,0,0.469,0.078,0.608,0.236c0.137,0.158,0.207,0.377,0.207,0.655v1.541h-0.5v-1.428
		c0-0.223-0.032-0.377-0.097-0.467c-0.065-0.088-0.178-0.133-0.34-0.133c-0.126,0-0.244,0.057-0.353,0.169
		c-0.111,0.113-0.165,0.291-0.165,0.534v1.324H74.66v-2.36H75.146z"/>
	<path clip-path="url(#SVGID_2_)" fill="#878787" d="M81.491,29.085h-0.527c-0.03-0.197-0.106-0.34-0.23-0.425
		c-0.123-0.086-0.27-0.128-0.441-0.128c-0.177,0-0.325,0.038-0.444,0.116c-0.118,0.078-0.212,0.18-0.281,0.307
		c-0.072,0.126-0.123,0.269-0.153,0.429c-0.03,0.158-0.045,0.32-0.045,0.485c0,0.168,0.015,0.332,0.045,0.491
		c0.03,0.159,0.081,0.302,0.153,0.428c0.069,0.126,0.163,0.228,0.281,0.305c0.119,0.075,0.267,0.114,0.444,0.114
		c0.171,0,0.317-0.042,0.437-0.124c0.12-0.083,0.204-0.237,0.252-0.467h0.527c-0.021,0.172-0.068,0.321-0.14,0.449
		c-0.072,0.127-0.163,0.233-0.274,0.317c-0.111,0.088-0.236,0.151-0.374,0.193c-0.138,0.042-0.284,0.063-0.437,0.063
		c-0.255,0-0.474-0.048-0.655-0.145c-0.182-0.096-0.332-0.227-0.448-0.392c-0.118-0.162-0.203-0.351-0.257-0.563
		s-0.081-0.437-0.081-0.671c0-0.226,0.028-0.444,0.083-0.66c0.056-0.215,0.142-0.403,0.259-0.568c0.117-0.166,0.267-0.299,0.448-0.4
		c0.182-0.1,0.399-0.149,0.651-0.149c0.144,0,0.285,0.019,0.422,0.058c0.136,0.04,0.26,0.1,0.371,0.18
		c0.111,0.082,0.203,0.186,0.277,0.31C81.428,28.762,81.473,28.911,81.491,29.085"/>
	<path clip-path="url(#SVGID_2_)" fill="#878787" d="M83.005,29.148c0.192,0,0.36,0.037,0.502,0.111
		c0.142,0.073,0.261,0.168,0.354,0.286c0.093,0.115,0.162,0.25,0.209,0.399c0.046,0.15,0.07,0.303,0.07,0.455
		c0,0.156-0.024,0.31-0.07,0.46c-0.047,0.15-0.116,0.284-0.209,0.4c-0.093,0.118-0.212,0.212-0.354,0.284s-0.31,0.108-0.502,0.108
		c-0.195,0-0.364-0.036-0.506-0.108c-0.143-0.072-0.261-0.166-0.354-0.284c-0.093-0.116-0.162-0.25-0.205-0.4
		c-0.044-0.15-0.065-0.304-0.065-0.46c0-0.152,0.021-0.305,0.065-0.455c0.043-0.149,0.112-0.284,0.205-0.399
		c0.093-0.118,0.211-0.213,0.354-0.286C82.641,29.186,82.81,29.148,83.005,29.148 M83.622,30.4c0-0.102-0.012-0.203-0.036-0.304
		c-0.024-0.1-0.062-0.191-0.112-0.272c-0.052-0.077-0.116-0.143-0.192-0.193s-0.169-0.077-0.277-0.077
		c-0.111,0-0.206,0.026-0.284,0.077s-0.141,0.116-0.189,0.193c-0.051,0.081-0.088,0.173-0.11,0.272
		c-0.023,0.101-0.034,0.202-0.034,0.304c0,0.105,0.011,0.208,0.034,0.309c0.022,0.101,0.059,0.19,0.11,0.269
		c0.048,0.081,0.111,0.146,0.189,0.193c0.078,0.049,0.173,0.071,0.284,0.071c0.108,0,0.201-0.022,0.277-0.071
		c0.076-0.048,0.14-0.112,0.192-0.193c0.05-0.078,0.088-0.168,0.112-0.269C83.61,30.608,83.622,30.506,83.622,30.4"/>
	<path clip-path="url(#SVGID_2_)" fill="#878787" d="M85.257,29.221v0.207c0.066-0.09,0.151-0.159,0.256-0.207
		c0.106-0.048,0.23-0.072,0.374-0.072c0.268,0,0.47,0.078,0.609,0.236c0.137,0.158,0.207,0.377,0.207,0.655v1.541h-0.501v-1.428
		c0-0.223-0.031-0.377-0.096-0.467c-0.065-0.088-0.178-0.133-0.34-0.133c-0.126,0-0.244,0.057-0.353,0.169
		c-0.111,0.113-0.165,0.291-0.165,0.534v1.324h-0.477v-2.36H85.257z"/>
	<path clip-path="url(#SVGID_2_)" fill="#878787" d="M88.085,31.495l-0.915-2.279h0.532l0.658,1.726l0.648-1.726h0.536l-0.923,2.279
		c-0.012,0.027-0.028,0.048-0.047,0.063c-0.02,0.015-0.046,0.022-0.079,0.022h-0.293c-0.036,0-0.062-0.009-0.079-0.025
		C88.107,31.539,88.094,31.52,88.085,31.495"/>
	<path clip-path="url(#SVGID_2_)" fill="#878787" d="M92.021,30.415c0,0.041-0.009,0.072-0.027,0.094
		c-0.018,0.021-0.045,0.032-0.081,0.032h-1.572c0,0.194,0.049,0.36,0.143,0.498c0.095,0.136,0.255,0.204,0.479,0.204
		c0.13,0,0.238-0.044,0.327-0.131c0.088-0.087,0.155-0.221,0.2-0.4h0.531c-0.084,0.333-0.223,0.573-0.414,0.72
		c-0.192,0.148-0.434,0.221-0.721,0.221c-0.184,0-0.343-0.033-0.476-0.103c-0.133-0.07-0.243-0.162-0.331-0.279
		c-0.09-0.118-0.156-0.251-0.198-0.401s-0.063-0.307-0.063-0.469c0-0.155,0.022-0.309,0.068-0.459
		c0.044-0.149,0.112-0.284,0.202-0.4c0.091-0.117,0.203-0.212,0.341-0.284c0.137-0.072,0.297-0.108,0.479-0.108
		c0.192,0,0.359,0.033,0.499,0.1c0.143,0.065,0.258,0.155,0.348,0.27c0.091,0.115,0.156,0.249,0.2,0.404
		C91.999,30.076,92.021,30.239,92.021,30.415 M90.355,30.14h1.148c-0.013-0.171-0.065-0.311-0.159-0.422
		c-0.096-0.109-0.235-0.164-0.423-0.164c-0.18,0-0.315,0.061-0.408,0.18C90.42,29.854,90.367,29.988,90.355,30.14"/>
	<path clip-path="url(#SVGID_2_)" fill="#878787" d="M93.72,29.613c-0.068,0-0.135,0.011-0.198,0.032
		c-0.063,0.023-0.118,0.061-0.167,0.111c-0.048,0.048-0.086,0.114-0.114,0.198c-0.029,0.084-0.043,0.186-0.043,0.307v1.319h-0.491
		v-2.36h0.5l-0.009,0.252c0.055-0.071,0.119-0.144,0.198-0.216c0.078-0.072,0.181-0.108,0.307-0.108c0.039,0,0.084,0.004,0.135,0.01
		s0.104,0.018,0.158,0.036v0.481c-0.061-0.027-0.112-0.044-0.156-0.052C93.796,29.617,93.756,29.613,93.72,29.613"/>
	<path clip-path="url(#SVGID_2_)" fill="#878787" d="M95.292,32.454c-0.276,0-0.509-0.058-0.696-0.176
		c-0.188-0.117-0.298-0.313-0.331-0.589h0.536c0.009,0.15,0.064,0.249,0.169,0.297c0.104,0.048,0.215,0.072,0.336,0.072
		c0.186,0,0.325-0.048,0.416-0.145c0.092-0.096,0.137-0.256,0.137-0.478v-0.072c-0.057,0.078-0.14,0.147-0.252,0.207
		c-0.11,0.062-0.238,0.09-0.383,0.09c-0.186,0-0.344-0.035-0.475-0.105c-0.13-0.07-0.236-0.162-0.318-0.276
		c-0.083-0.117-0.144-0.25-0.18-0.398s-0.055-0.304-0.055-0.463c0-0.158,0.021-0.313,0.06-0.466c0.039-0.15,0.1-0.285,0.185-0.402
		c0.081-0.117,0.187-0.213,0.317-0.284c0.131-0.072,0.288-0.108,0.471-0.108c0.138,0,0.26,0.022,0.365,0.066
		c0.104,0.043,0.189,0.107,0.257,0.195l-0.005-0.189h0.487v2.266c0,0.3-0.095,0.535-0.28,0.705
		C95.866,32.369,95.612,32.454,95.292,32.454 M95.273,31.252c0.213,0,0.365-0.076,0.457-0.229c0.091-0.153,0.139-0.342,0.139-0.568
		c0-0.252-0.048-0.462-0.139-0.632c-0.092-0.17-0.25-0.255-0.475-0.255c-0.108,0-0.197,0.027-0.267,0.079
		c-0.068,0.052-0.123,0.121-0.161,0.205c-0.042,0.084-0.071,0.178-0.087,0.281c-0.014,0.104-0.021,0.207-0.021,0.309
		c0,0.111,0.01,0.216,0.029,0.315s0.051,0.185,0.093,0.257c0.044,0.075,0.103,0.134,0.173,0.176
		C95.085,31.23,95.172,31.252,95.273,31.252"/>
	<path clip-path="url(#SVGID_2_)" fill="#878787" d="M99.155,30.415c0,0.041-0.009,0.072-0.026,0.094
		c-0.019,0.021-0.045,0.032-0.081,0.032h-1.572c0,0.194,0.048,0.36,0.142,0.498c0.096,0.136,0.256,0.204,0.48,0.204
		c0.129,0,0.238-0.044,0.327-0.131c0.088-0.087,0.155-0.221,0.2-0.4h0.53c-0.083,0.333-0.222,0.573-0.414,0.72
		c-0.191,0.148-0.433,0.221-0.721,0.221c-0.183,0-0.341-0.033-0.475-0.103c-0.134-0.07-0.243-0.162-0.331-0.279
		c-0.09-0.118-0.156-0.251-0.198-0.401s-0.063-0.307-0.063-0.469c0-0.155,0.022-0.309,0.068-0.459
		c0.044-0.149,0.112-0.284,0.202-0.4c0.09-0.117,0.203-0.212,0.34-0.284s0.297-0.108,0.48-0.108c0.191,0,0.358,0.033,0.5,0.1
		c0.141,0.065,0.257,0.155,0.347,0.27c0.09,0.115,0.156,0.249,0.2,0.404C99.135,30.076,99.155,30.239,99.155,30.415 M97.489,30.14
		h1.149c-0.013-0.171-0.066-0.311-0.16-0.422c-0.095-0.109-0.235-0.164-0.422-0.164c-0.18,0-0.316,0.061-0.409,0.18
		C97.555,29.854,97.502,29.988,97.489,30.14"/>
	<path clip-path="url(#SVGID_2_)" fill="#878787" d="M100.354,29.221v0.207c0.065-0.09,0.15-0.159,0.256-0.207
		s0.229-0.072,0.374-0.072c0.268,0,0.47,0.078,0.609,0.236c0.137,0.158,0.207,0.377,0.207,0.655v1.541h-0.502v-1.428
		c0-0.223-0.03-0.377-0.096-0.467c-0.064-0.088-0.178-0.133-0.34-0.133c-0.126,0-0.244,0.057-0.353,0.169
		c-0.111,0.113-0.165,0.291-0.165,0.534v1.324h-0.479v-2.36H100.354z"/>
	<path clip-path="url(#SVGID_2_)" fill="#878787" d="M104.507,30.076h-0.523c-0.011-0.198-0.057-0.334-0.136-0.409
		c-0.08-0.076-0.196-0.112-0.351-0.112c-0.161,0-0.292,0.077-0.389,0.233c-0.098,0.156-0.146,0.36-0.146,0.612
		c0,0.25,0.047,0.452,0.144,0.607c0.096,0.157,0.225,0.235,0.387,0.235c0.142,0,0.253-0.038,0.336-0.115
		c0.082-0.076,0.135-0.215,0.154-0.416h0.532c-0.045,0.314-0.159,0.551-0.342,0.707c-0.184,0.155-0.406,0.234-0.667,0.234
		c-0.181,0-0.337-0.035-0.471-0.104c-0.134-0.068-0.246-0.161-0.336-0.278c-0.087-0.117-0.151-0.251-0.195-0.401
		c-0.043-0.149-0.065-0.307-0.065-0.469c0-0.155,0.023-0.31,0.07-0.459c0.046-0.15,0.114-0.284,0.205-0.4
		c0.093-0.118,0.207-0.212,0.344-0.284c0.137-0.071,0.295-0.108,0.475-0.108c0.126,0,0.247,0.021,0.36,0.063
		c0.115,0.043,0.215,0.104,0.302,0.181c0.088,0.079,0.159,0.175,0.215,0.291C104.466,29.798,104.497,29.93,104.507,30.076"/>
	<path clip-path="url(#SVGID_2_)" fill="#878787" d="M107.091,30.415c0,0.041-0.009,0.072-0.026,0.094
		c-0.018,0.021-0.045,0.032-0.081,0.032h-1.572c0,0.194,0.048,0.36,0.143,0.498c0.095,0.136,0.255,0.204,0.479,0.204
		c0.129,0,0.238-0.044,0.327-0.131c0.088-0.087,0.155-0.221,0.2-0.4h0.53c-0.083,0.333-0.222,0.573-0.413,0.72
		c-0.192,0.148-0.434,0.221-0.722,0.221c-0.183,0-0.341-0.033-0.475-0.103c-0.133-0.07-0.243-0.162-0.33-0.279
		c-0.091-0.118-0.157-0.251-0.199-0.401s-0.063-0.307-0.063-0.469c0-0.155,0.021-0.309,0.067-0.459
		c0.044-0.149,0.112-0.284,0.202-0.4c0.09-0.117,0.203-0.212,0.34-0.284c0.138-0.072,0.297-0.108,0.48-0.108
		c0.191,0,0.358,0.033,0.5,0.1c0.141,0.065,0.257,0.155,0.347,0.27c0.09,0.115,0.156,0.249,0.2,0.404
		C107.07,30.076,107.091,30.239,107.091,30.415 M105.426,30.14h1.148c-0.012-0.171-0.066-0.311-0.16-0.422
		c-0.095-0.109-0.234-0.164-0.422-0.164c-0.18,0-0.315,0.061-0.409,0.18C105.49,29.854,105.438,29.988,105.426,30.14"/>
	<polygon clip-path="url(#SVGID_2_)" fill="#878787" points="110.033,31.571 110.033,28.595 109.028,28.595 109.028,28.167 
		111.528,28.167 111.528,28.595 110.532,28.595 110.532,31.571 	"/>
	<path clip-path="url(#SVGID_2_)" fill="#878787" d="M112.537,28.136v1.297c0.087-0.09,0.184-0.161,0.291-0.212
		c0.105-0.051,0.224-0.076,0.353-0.076c0.268,0,0.479,0.078,0.633,0.234c0.155,0.156,0.232,0.372,0.232,0.648v1.544h-0.5v-1.423
		c0-0.219-0.038-0.374-0.115-0.464c-0.076-0.09-0.199-0.135-0.367-0.135c-0.065,0-0.131,0.014-0.192,0.042
		c-0.064,0.029-0.119,0.07-0.167,0.124c-0.052,0.058-0.092,0.131-0.122,0.219s-0.045,0.193-0.045,0.313v1.323h-0.478v-3.436H112.537
		z"/>
	<path clip-path="url(#SVGID_2_)" fill="#878787" d="M116.86,30.415c0,0.041-0.009,0.072-0.027,0.094
		c-0.018,0.021-0.045,0.032-0.081,0.032h-1.571c0,0.194,0.048,0.36,0.142,0.498c0.095,0.136,0.255,0.204,0.48,0.204
		c0.129,0,0.237-0.044,0.326-0.131s0.155-0.221,0.2-0.4h0.531c-0.083,0.333-0.222,0.573-0.414,0.72
		c-0.192,0.148-0.433,0.221-0.721,0.221c-0.184,0-0.341-0.033-0.476-0.103c-0.133-0.07-0.242-0.162-0.331-0.279
		c-0.09-0.118-0.155-0.251-0.197-0.401s-0.063-0.307-0.063-0.469c0-0.155,0.022-0.309,0.068-0.459
		c0.044-0.149,0.112-0.284,0.202-0.4c0.09-0.117,0.203-0.212,0.34-0.284s0.297-0.108,0.479-0.108c0.192,0,0.359,0.033,0.5,0.1
		c0.142,0.065,0.258,0.155,0.348,0.27c0.09,0.115,0.155,0.249,0.199,0.404C116.839,30.076,116.86,30.239,116.86,30.415
		 M115.194,30.14h1.149c-0.013-0.171-0.066-0.311-0.16-0.422c-0.095-0.109-0.235-0.164-0.422-0.164c-0.181,0-0.316,0.061-0.409,0.18
		C115.26,29.854,115.206,29.988,115.194,30.14"/>
	<path clip-path="url(#SVGID_2_)" fill="#878787" d="M118.56,29.613c-0.069,0-0.136,0.011-0.198,0.032
		c-0.064,0.023-0.119,0.061-0.167,0.111c-0.048,0.048-0.086,0.114-0.115,0.198s-0.043,0.186-0.043,0.307v1.319h-0.491v-2.36h0.5
		l-0.009,0.252c0.055-0.071,0.12-0.144,0.199-0.216c0.078-0.072,0.18-0.108,0.306-0.108c0.039,0,0.084,0.004,0.135,0.01
		c0.052,0.006,0.104,0.018,0.158,0.036v0.481c-0.06-0.027-0.112-0.044-0.156-0.052C118.635,29.617,118.595,29.613,118.56,29.613"/>
	<path clip-path="url(#SVGID_2_)" fill="#878787" d="M120.514,30.072v-0.104c-0.013-0.165-0.054-0.274-0.124-0.331
		c-0.07-0.055-0.174-0.083-0.309-0.083c-0.118,0-0.211,0.024-0.282,0.072c-0.069,0.048-0.112,0.158-0.128,0.329h-0.522
		c0.007-0.141,0.038-0.263,0.095-0.365c0.058-0.102,0.129-0.186,0.216-0.252c0.087-0.063,0.187-0.11,0.295-0.142
		c0.11-0.031,0.223-0.047,0.335-0.047c0.271,0,0.49,0.069,0.656,0.209c0.167,0.14,0.249,0.348,0.245,0.624v1.197
		c0,0.055,0.002,0.116,0.005,0.186s0.013,0.141,0.031,0.216h-0.49l-0.005-0.226c-0.036,0.066-0.111,0.133-0.225,0.198
		c-0.114,0.066-0.245,0.1-0.393,0.1c-0.288,0-0.501-0.066-0.637-0.196c-0.137-0.13-0.205-0.316-0.205-0.556
		c0-0.162,0.045-0.307,0.135-0.432c0.09-0.124,0.209-0.218,0.356-0.28c0.078-0.036,0.163-0.063,0.254-0.079s0.181-0.027,0.268-0.034
		c0.084-0.003,0.164-0.004,0.239-0.004H120.514z M119.59,30.91c0,0.135,0.03,0.224,0.093,0.267c0.061,0.044,0.154,0.066,0.28,0.066
		c0.118,0,0.214-0.021,0.286-0.063c0.074-0.042,0.132-0.099,0.174-0.171c0.039-0.071,0.066-0.153,0.081-0.246
		c0.016-0.092,0.023-0.187,0.023-0.284h-0.257c-0.105,0-0.209,0.011-0.312,0.035c-0.102,0.021-0.188,0.063-0.261,0.123
		C119.626,30.699,119.59,30.79,119.59,30.91"/>
	<path clip-path="url(#SVGID_2_)" fill="#878787" d="M122.233,29.383c0.082-0.065,0.177-0.121,0.286-0.161
		c0.109-0.042,0.221-0.064,0.332-0.064c0.183,0,0.34,0.036,0.47,0.106c0.131,0.07,0.238,0.163,0.323,0.281
		c0.08,0.117,0.14,0.25,0.18,0.398c0.039,0.148,0.059,0.302,0.059,0.457c0,0.162-0.021,0.319-0.061,0.471
		c-0.042,0.152-0.103,0.286-0.188,0.404c-0.084,0.116-0.191,0.21-0.322,0.281c-0.13,0.069-0.286,0.105-0.466,0.105
		c-0.129,0-0.245-0.022-0.35-0.068c-0.104-0.045-0.191-0.107-0.264-0.188v1.049h-0.491v-3.229h0.496L122.233,29.383z
		 M122.802,29.563c-0.213,0-0.365,0.077-0.455,0.231s-0.136,0.345-0.136,0.569c0,0.126,0.011,0.244,0.029,0.352
		c0.021,0.108,0.054,0.201,0.102,0.279c0.049,0.081,0.111,0.144,0.189,0.188s0.174,0.064,0.288,0.064
		c0.105,0,0.193-0.024,0.261-0.076c0.069-0.051,0.125-0.116,0.167-0.197c0.039-0.085,0.067-0.179,0.085-0.282
		c0.019-0.104,0.028-0.208,0.028-0.313c0-0.11-0.011-0.216-0.032-0.313c-0.021-0.099-0.054-0.185-0.099-0.259
		c-0.045-0.075-0.104-0.135-0.174-0.179C122.985,29.585,122.9,29.563,122.802,29.563"/>
	<path clip-path="url(#SVGID_2_)" fill="#878787" d="M126.594,30.415c0,0.041-0.01,0.072-0.027,0.094
		c-0.018,0.021-0.045,0.032-0.081,0.032h-1.572c0,0.194,0.048,0.36,0.143,0.498c0.095,0.136,0.255,0.204,0.479,0.204
		c0.129,0,0.238-0.044,0.327-0.131c0.088-0.087,0.155-0.221,0.2-0.4h0.531c-0.083,0.333-0.223,0.573-0.414,0.72
		c-0.192,0.148-0.434,0.221-0.722,0.221c-0.183,0-0.341-0.033-0.475-0.103c-0.133-0.07-0.243-0.162-0.331-0.279
		c-0.09-0.118-0.156-0.251-0.198-0.401s-0.063-0.307-0.063-0.469c0-0.155,0.021-0.309,0.067-0.459
		c0.044-0.149,0.112-0.284,0.202-0.4c0.09-0.117,0.203-0.212,0.34-0.284c0.138-0.072,0.298-0.108,0.48-0.108
		c0.192,0,0.359,0.033,0.5,0.1c0.141,0.065,0.257,0.155,0.347,0.27c0.09,0.115,0.156,0.249,0.2,0.404
		C126.572,30.076,126.594,30.239,126.594,30.415 M124.928,30.14h1.148c-0.013-0.171-0.065-0.311-0.16-0.422
		c-0.095-0.109-0.234-0.164-0.422-0.164c-0.18,0-0.315,0.061-0.409,0.18C124.992,29.854,124.939,29.988,124.928,30.14"/>
	<path clip-path="url(#SVGID_2_)" fill="#878787" d="M128.761,31.581l0.009-0.212c-0.06,0.081-0.145,0.148-0.25,0.203
		c-0.107,0.054-0.237,0.081-0.39,0.081c-0.271,0-0.475-0.079-0.612-0.236c-0.139-0.158-0.208-0.377-0.208-0.656v-1.54h0.5v1.429
		c0,0.225,0.032,0.381,0.095,0.468c0.063,0.087,0.177,0.13,0.342,0.13c0.126,0,0.245-0.055,0.356-0.166s0.167-0.29,0.167-0.536
		v-1.324h0.472v2.36H128.761z"/>
	<path clip-path="url(#SVGID_2_)" fill="#878787" d="M130.711,28.563v0.644h0.495v0.41h-0.495v1.333
		c0,0.129,0.016,0.212,0.047,0.245c0.031,0.035,0.083,0.052,0.154,0.052c0.044,0,0.092-0.002,0.147-0.008
		c0.055-0.007,0.114-0.026,0.173-0.06v0.405c-0.051,0.021-0.113,0.037-0.186,0.048c-0.074,0.01-0.136,0.016-0.184,0.016
		c-0.087,0-0.17-0.01-0.247-0.027c-0.079-0.019-0.146-0.051-0.204-0.099c-0.057-0.046-0.101-0.106-0.134-0.186
		c-0.033-0.077-0.05-0.175-0.05-0.292v-1.428h-0.437v-0.41h0.437v-0.644H130.711z"/>
	<path clip-path="url(#SVGID_2_)" fill="#878787" d="M132.313,28.662h-0.527v-0.5h0.527V28.662z M131.805,29.163h0.491v2.409h-0.491
		V29.163z"/>
	<path clip-path="url(#SVGID_2_)" fill="#878787" d="M134.976,30.076h-0.522c-0.012-0.198-0.058-0.334-0.137-0.409
		c-0.08-0.076-0.196-0.112-0.351-0.112c-0.161,0-0.292,0.077-0.389,0.233c-0.098,0.156-0.146,0.36-0.146,0.612
		c0,0.25,0.047,0.452,0.144,0.607c0.096,0.157,0.226,0.235,0.387,0.235c0.142,0,0.253-0.038,0.336-0.115
		c0.082-0.076,0.135-0.215,0.155-0.416h0.531c-0.045,0.314-0.159,0.551-0.342,0.707c-0.184,0.155-0.406,0.234-0.667,0.234
		c-0.181,0-0.337-0.035-0.471-0.104c-0.134-0.068-0.245-0.161-0.336-0.278c-0.087-0.117-0.151-0.251-0.195-0.401
		c-0.043-0.149-0.065-0.307-0.065-0.469c0-0.155,0.023-0.31,0.07-0.459c0.046-0.15,0.115-0.284,0.205-0.4
		c0.093-0.118,0.207-0.212,0.344-0.284c0.137-0.071,0.295-0.108,0.475-0.108c0.126,0,0.247,0.021,0.36,0.063
		c0.115,0.043,0.215,0.104,0.302,0.181c0.088,0.079,0.159,0.175,0.214,0.291C134.935,29.798,134.966,29.93,134.976,30.076"/>
	<path clip-path="url(#SVGID_2_)" fill="#878787" d="M135.503,29.86c0-0.129,0.028-0.239,0.083-0.331
		c0.055-0.091,0.127-0.164,0.214-0.218c0.087-0.058,0.184-0.1,0.29-0.124c0.107-0.025,0.213-0.038,0.318-0.038
		c0.107,0,0.215,0.01,0.319,0.031c0.105,0.021,0.2,0.06,0.283,0.116c0.085,0.058,0.155,0.135,0.212,0.23
		c0.058,0.096,0.095,0.221,0.113,0.374h-0.523c-0.023-0.117-0.07-0.205-0.141-0.262c-0.071-0.057-0.165-0.085-0.282-0.085
		c-0.107,0-0.198,0.019-0.27,0.059c-0.072,0.039-0.108,0.108-0.108,0.207c0,0.065,0.019,0.115,0.054,0.147
		c0.036,0.033,0.092,0.063,0.166,0.087c0.072,0.023,0.165,0.05,0.28,0.075c0.114,0.028,0.249,0.069,0.405,0.126
		c0.171,0.058,0.294,0.138,0.37,0.24c0.074,0.102,0.111,0.217,0.111,0.346c0,0.143-0.029,0.264-0.088,0.365
		c-0.058,0.103-0.137,0.187-0.235,0.252c-0.097,0.066-0.207,0.115-0.331,0.146c-0.125,0.031-0.251,0.048-0.381,0.048
		c-0.103,0-0.208-0.014-0.317-0.041c-0.11-0.027-0.21-0.072-0.3-0.135c-0.094-0.066-0.17-0.152-0.232-0.26
		c-0.061-0.105-0.095-0.239-0.101-0.397h0.521c0.009,0.183,0.06,0.299,0.149,0.349c0.09,0.049,0.2,0.074,0.329,0.074
		c0.126,0,0.233-0.025,0.326-0.074c0.091-0.05,0.138-0.141,0.138-0.272c0-0.066-0.017-0.119-0.048-0.158
		c-0.031-0.038-0.074-0.072-0.128-0.098c-0.055-0.025-0.118-0.046-0.191-0.063c-0.075-0.016-0.154-0.036-0.242-0.06
		c-0.087-0.021-0.175-0.045-0.266-0.07c-0.09-0.025-0.172-0.063-0.247-0.11c-0.075-0.049-0.136-0.109-0.182-0.185
		C135.525,30.078,135.503,29.98,135.503,29.86"/>
	<polygon clip-path="url(#SVGID_2_)" fill="#214549" points="49.519,23.621 49.519,14.854 46.255,14.854 46.255,12.575 
		56.093,12.575 56.093,14.854 52.878,14.854 52.878,23.621 	"/>
	<polygon clip-path="url(#SVGID_2_)" fill="#214549" points="64.143,23.621 64.143,19.051 61.104,19.051 61.104,23.621 
		57.827,23.621 57.827,12.575 61.104,12.575 61.104,16.744 64.143,16.744 64.143,12.575 67.42,12.575 67.42,23.621 	"/>
	<polygon clip-path="url(#SVGID_2_)" fill="#214549" points="69.48,23.621 69.48,12.575 77.882,12.575 77.882,14.881 72.823,14.881 
		72.823,16.718 77.719,16.718 77.719,18.997 72.823,18.997 72.823,21.354 78.094,21.354 78.094,23.621 	"/>
	<path clip-path="url(#SVGID_2_)" fill="#214549" d="M86.537,23.62l-0.042-0.135c-0.143-0.46-0.295-1.101-0.453-1.904
		c-0.156-0.792-0.267-1.287-0.329-1.474c-0.168-0.505-0.594-0.75-1.301-0.75h-1.307v4.263h-3.277V12.575h5.188
		c1.34,0,2.406,0.261,3.17,0.775c0.787,0.53,1.186,1.363,1.186,2.476c0,0.569-0.155,1.1-0.462,1.578
		c-0.233,0.365-0.52,0.665-0.853,0.896c0.393,0.236,0.663,0.641,0.804,1.21c0.043,0.141,0.154,0.677,0.336,1.627
		c0.177,0.919,0.38,1.668,0.603,2.223l0.104,0.261H86.537z M84.542,17.051c1.45,0,1.617-0.677,1.617-1.186
		c0-0.379-0.12-0.639-0.367-0.795c-0.272-0.17-0.709-0.257-1.299-0.257h-1.389v2.238H84.542z"/>
	<path clip-path="url(#SVGID_2_)" fill="#214549" d="M99.581,23.621l-0.784-2.326h-3.865l-0.783,2.326h-3.388l4.091-11.073h4.043
		l4.091,11.073H99.581z M98.049,19.096l-1.185-3.521l-1.199,3.521H98.049z"/>
	<path clip-path="url(#SVGID_2_)" fill="#214549" d="M104.57,16.934h3.645c0.271,0,0.529,0.036,0.772,0.108
		c0.241,0.073,0.459,0.187,0.647,0.341c0.19,0.155,0.339,0.358,0.45,0.611c0.11,0.252,0.166,0.549,0.166,0.889
		c0,0.638-0.203,1.126-0.607,1.463c-0.402,0.338-0.983,0.507-1.74,0.507h-2.633v2.84h-0.7V16.934z M105.271,20.208h2.707
		c0.557,0,0.947-0.115,1.175-0.346c0.228-0.23,0.341-0.556,0.341-0.98c0-0.479-0.12-0.817-0.359-1.012
		c-0.241-0.196-0.578-0.294-1.013-0.294h-2.851V20.208z"/>
	<polygon clip-path="url(#SVGID_2_)" fill="#214549" points="111.121,16.933 111.822,16.933 111.822,19.792 116.707,19.792 
		116.707,16.933 117.407,16.933 117.407,23.692 116.707,23.692 116.707,20.436 111.822,20.436 111.822,23.692 111.121,23.692 	"/>
	<path clip-path="url(#SVGID_2_)" fill="#214549" d="M123.21,21.639h-3.559l-0.919,2.054h-0.757l3.066-6.759h0.815l3.066,6.759
		h-0.813L123.21,21.639z M121.44,17.633l-1.505,3.361h2.991L121.44,17.633z"/>
	<path clip-path="url(#SVGID_2_)" fill="#214549" d="M125.604,16.933h3.684c0.309,0,0.593,0.03,0.852,0.09s0.489,0.16,0.691,0.298
		c0.202,0.139,0.36,0.329,0.478,0.568c0.117,0.24,0.175,0.53,0.175,0.871c0,0.379-0.114,0.723-0.345,1.032s-0.557,0.511-0.979,0.606
		v0.019c0.454,0.07,0.762,0.249,0.923,0.54c0.161,0.291,0.254,0.735,0.278,1.334c0.007,0.119,0.015,0.251,0.024,0.393
		c0.009,0.142,0.023,0.286,0.042,0.431c0.019,0.146,0.043,0.269,0.071,0.369c0.028,0.102,0.062,0.171,0.1,0.208h-0.757
		c-0.057-0.068-0.1-0.219-0.128-0.449c-0.029-0.229-0.046-0.541-0.052-0.933c-0.008-0.593-0.136-1.006-0.385-1.24
		c-0.249-0.233-0.667-0.35-1.254-0.35h-2.717v2.972h-0.701V16.933z M126.306,20.076h2.963c0.202,0,0.391-0.022,0.563-0.066
		c0.174-0.044,0.329-0.115,0.464-0.213c0.136-0.098,0.242-0.234,0.317-0.407c0.075-0.174,0.113-0.384,0.113-0.63
		c0-0.239-0.041-0.438-0.123-0.596s-0.188-0.28-0.316-0.365c-0.13-0.085-0.276-0.143-0.44-0.175
		c-0.165-0.031-0.335-0.047-0.512-0.047h-3.029V20.076z"/>
	<polygon clip-path="url(#SVGID_2_)" fill="#214549" points="139.55,16.933 140.544,16.933 140.544,23.692 139.843,23.692 
		139.843,17.851 139.824,17.851 136.842,23.692 136.199,23.692 133.226,17.842 133.207,17.842 133.207,23.692 132.506,23.692 
		132.506,16.933 133.529,16.933 136.539,22.812 	"/>
	<path clip-path="url(#SVGID_2_)" fill="#214549" d="M146.347,21.639h-3.559l-0.919,2.054h-0.757l3.066-6.759h0.814l3.067,6.759
		h-0.814L146.347,21.639z M144.577,17.633l-1.505,3.361h2.99L144.577,17.633z"/>
	<path clip-path="url(#SVGID_2_)" fill="#214549" d="M151.373,16.934h3.646c0.271,0,0.528,0.036,0.771,0.108
		c0.242,0.073,0.459,0.187,0.648,0.341c0.189,0.155,0.339,0.358,0.45,0.611c0.109,0.252,0.164,0.549,0.164,0.889
		c0,0.638-0.201,1.126-0.605,1.463c-0.403,0.338-0.984,0.507-1.741,0.507h-2.632v2.84h-0.701V16.934z M152.074,20.208h2.707
		c0.556,0,0.947-0.115,1.174-0.346c0.229-0.23,0.341-0.556,0.341-0.98c0-0.479-0.12-0.817-0.359-1.012
		c-0.24-0.196-0.577-0.294-1.014-0.294h-2.849V20.208z"/>
	<path clip-path="url(#SVGID_2_)" fill="#214549" d="M158.038,16.933h3.683c0.31,0,0.593,0.03,0.853,0.09
		c0.259,0.06,0.488,0.16,0.69,0.298c0.202,0.139,0.361,0.329,0.479,0.568c0.117,0.24,0.175,0.53,0.175,0.871
		c0,0.379-0.115,0.723-0.345,1.032c-0.231,0.309-0.558,0.511-0.98,0.606v0.019c0.454,0.07,0.762,0.249,0.923,0.54
		c0.161,0.291,0.254,0.735,0.279,1.334c0.006,0.119,0.015,0.251,0.024,0.393c0.009,0.142,0.022,0.286,0.042,0.431
		c0.019,0.146,0.043,0.269,0.07,0.369c0.029,0.102,0.063,0.171,0.101,0.208h-0.758c-0.057-0.068-0.1-0.219-0.128-0.449
		c-0.028-0.229-0.046-0.541-0.053-0.933c-0.006-0.593-0.134-1.006-0.383-1.24c-0.249-0.233-0.667-0.35-1.254-0.35h-2.717v2.972
		h-0.701V16.933z M158.739,20.076h2.963c0.202,0,0.39-0.022,0.563-0.066c0.174-0.044,0.328-0.115,0.464-0.213
		c0.137-0.098,0.242-0.234,0.317-0.407c0.076-0.174,0.114-0.384,0.114-0.63c0-0.239-0.041-0.438-0.123-0.596
		s-0.188-0.28-0.317-0.365c-0.13-0.085-0.275-0.143-0.439-0.175c-0.165-0.031-0.335-0.047-0.513-0.047h-3.028V20.076z"/>
	<path clip-path="url(#SVGID_2_)" fill="#214549" d="M164.968,18.778c0.195-0.448,0.466-0.822,0.81-1.121
		c0.344-0.3,0.735-0.524,1.174-0.673c0.438-0.148,0.904-0.222,1.396-0.222c0.491,0,0.958,0.074,1.396,0.222
		c0.438,0.149,0.829,0.373,1.174,0.673c0.344,0.299,0.613,0.673,0.81,1.121c0.195,0.448,0.293,0.96,0.293,1.534
		s-0.098,1.086-0.293,1.534c-0.196,0.448-0.466,0.822-0.81,1.122c-0.345,0.299-0.735,0.522-1.174,0.672
		c-0.438,0.147-0.905,0.222-1.396,0.222c-0.492,0-0.958-0.074-1.396-0.222c-0.438-0.149-0.83-0.373-1.174-0.672
		c-0.344-0.3-0.614-0.674-0.81-1.122s-0.294-0.96-0.294-1.534S164.772,19.227,164.968,18.778 M165.668,21.604
		c0.158,0.369,0.374,0.672,0.649,0.909c0.273,0.235,0.585,0.413,0.932,0.53c0.348,0.116,0.713,0.175,1.099,0.175
		c0.385,0,0.751-0.058,1.098-0.17c0.347-0.114,0.658-0.291,0.933-0.53c0.274-0.24,0.49-0.545,0.648-0.914s0.237-0.8,0.237-1.292
		s-0.079-0.923-0.237-1.292s-0.374-0.674-0.648-0.914c-0.274-0.24-0.586-0.417-0.933-0.53c-0.347-0.114-0.713-0.17-1.098-0.17
		c-0.386,0-0.751,0.056-1.099,0.17c-0.347,0.113-0.658,0.29-0.932,0.53c-0.275,0.24-0.491,0.545-0.649,0.914
		c-0.157,0.369-0.236,0.8-0.236,1.292S165.511,21.235,165.668,21.604"/>
	<path clip-path="url(#SVGID_2_)" fill="#214549" d="M173.005,16.933h3.285c0.972,0,1.714,0.295,2.225,0.885
		c0.512,0.591,0.767,1.422,0.767,2.495c0,0.479-0.061,0.925-0.184,1.335s-0.308,0.768-0.554,1.074s-0.552,0.545-0.914,0.715
		c-0.363,0.17-0.775,0.256-1.235,0.256h-3.39V16.933z M173.706,23.049h2.556c0.322,0,0.617-0.047,0.885-0.143
		c0.269-0.095,0.507-0.249,0.715-0.464s0.371-0.498,0.488-0.852s0.175-0.779,0.175-1.278c0-0.909-0.185-1.592-0.554-2.05
		c-0.369-0.457-0.939-0.686-1.709-0.686h-2.556V23.049z"/>
	<rect x="180.654" y="22.651" clip-path="url(#SVGID_2_)" fill="#214549" width="0.813" height="1.041"/>
</g>
</svg>
