<?xml version="1.0" encoding="utf-8"?>
<!-- Generator: Adobe Illustrator 16.0.0, SVG Export Plug-In . SVG Version: 6.00 Build 0)  -->
<!DOCTYPE svg PUBLIC "-//W3C//DTD SVG 1.1//EN" "http://www.w3.org/Graphics/SVG/1.1/DTD/svg11.dtd">
<svg version="1.1" id="Layer_1" xmlns="http://www.w3.org/2000/svg" xmlns:xlink="http://www.w3.org/1999/xlink" x="0px" y="0px"
	 width="25.807px" height="22.499px" viewBox="0 0 25.807 22.499" enable-background="new 0 0 25.807 22.499" xml:space="preserve">
<g>
	<defs>
		<rect id="SVGID_1_" width="25.807" height="22.499"/>
	</defs>
	<clipPath id="SVGID_2_">
		<use xlink:href="#SVGID_1_"  overflow="visible"/>
	</clipPath>
	<path clip-path="url(#SVGID_2_)" fill="#FFFFFF" d="M25.542,4.022c-0.245-0.326-0.625-0.489-1.033-0.489H6.875L6.25,1.006
		C6.114,0.408,5.57,0,4.972,0H1.304C0.571,0,0,0.598,0,1.305c0,0.706,0.598,1.304,1.304,1.304H3.94l3.261,13.016
		c0.135,0.597,0.679,1.005,1.277,1.005h13.477c0.598,0,1.141-0.408,1.277-1.005l2.526-10.489
		C25.868,4.756,25.787,4.348,25.542,4.022"/>
	<path clip-path="url(#SVGID_2_)" fill="#FFFFFF" d="M10.298,17.825c1.291,0,2.337,1.046,2.337,2.337
		c0,1.29-1.046,2.337-2.337,2.337s-2.337-1.047-2.337-2.337C7.961,18.871,9.007,17.825,10.298,17.825"/>
	<path clip-path="url(#SVGID_2_)" fill="#FFFFFF" d="M19.482,17.825c1.291,0,2.337,1.046,2.337,2.337
		c0,1.29-1.046,2.337-2.337,2.337s-2.337-1.047-2.337-2.337C17.146,18.871,18.191,17.825,19.482,17.825"/>
</g>
</svg>
