<?xml version="1.0" encoding="utf-8"?>
<!-- Generator: Adobe Illustrator 16.0.0, SVG Export Plug-In . SVG Version: 6.00 Build 0)  -->
<!DOCTYPE svg PUBLIC "-//W3C//DTD SVG 1.1//EN" "http://www.w3.org/Graphics/SVG/1.1/DTD/svg11.dtd">
<svg version="1.1" id="Layer_1" xmlns="http://www.w3.org/2000/svg" xmlns:xlink="http://www.w3.org/1999/xlink" x="0px" y="0px"
	 width="20.07px" height="20px" viewBox="0 0 20.07 20" enable-background="new 0 0 20.07 20" xml:space="preserve">
<g>
	<defs>
		<rect id="SVGID_1_" width="20.07" height="20"/>
	</defs>
	<clipPath id="SVGID_2_">
		<use xlink:href="#SVGID_1_"  overflow="visible"/>
	</clipPath>
	<path clip-path="url(#SVGID_2_)" fill="#FFFFFF" d="M7.759,15.449c-1.529,0.007-3.026-0.44-4.301-1.285
		c-1.275-0.844-2.27-2.048-2.86-3.459C0.008,9.294-0.15,7.74,0.144,6.239c0.294-1.5,1.027-2.88,2.106-3.964s2.455-1.823,3.954-2.124
		c1.499-0.301,3.054-0.15,4.468,0.433c1.413,0.583,2.622,1.573,3.473,2.844s1.305,2.766,1.306,4.295
		c0.002,2.044-0.807,4.005-2.248,5.454C11.76,14.625,9.803,15.443,7.759,15.449L7.759,15.449z M7.759,2.248
		c-1.453-0.01-2.851,0.559-3.884,1.581C2.841,4.851,2.257,6.242,2.25,7.696c-0.006,1.453,0.566,2.849,1.59,3.881
		c1.024,1.031,2.416,1.613,3.869,1.616c1.454,0.004,2.849-0.571,3.878-1.598c1.029-1.025,1.608-2.419,1.608-3.873
		c0.003-1.446-0.567-2.835-1.586-3.861C10.589,2.836,9.205,2.257,7.758,2.25L7.759,2.248z"/>
	<polygon clip-path="url(#SVGID_2_)" fill="#FFFFFF" points="18.479,20 13.613,15.163 15.205,13.567 20.07,18.404 	"/>
</g>
</svg>
